# .PCD v0.7 - Point Cloud Data file format
VERSION 0.7
FIELDS x y z color score
SIZE 4 4 4 4 4
TYPE F F F I F
COUNT 1 1 1 1 1
WIDTH 98
HEIGHT 1
VIEWPOINT 0 0 0 1 0 0 0
POINTS 98
DATA ascii
-0.5262056905706961 1.623073751516759 0 0 1
3.4647190271101582 1.9712945287598265 0 0 1
7.302483724061009 0.6853637911495617 0 0 1
9.87330492171036 -2.3911229436135013 0 0 1
11.146884841868555 -6.207697480459528 0 0 1
12.842923273532854 -9.857338276825255 0 0 1
16.425442174595762 -11.66024099493738 0 0 1
20.44313839322874 -11.566138804203367 0 0 1
24.451553465024055 -11.115081161002763 0 0 1
28.44950738431319 -10.900137726118464 0 0 1
32.463466185446975 -11.022757330854715 0 0 1
36.49498955782155 -11.377324731387843 0 0 1
40.42480320304754 -12.191381392317611 0 0 1
44.02998469002295 -13.951221468104558 0 0 1
46.63503919539452 -17.029774479765656 0 0 1
47.96528300164326 -20.811631447552315 0 0 1
49.07917981903742 -24.700322485527746 0 0 1
49.58049534811961 -28.69181994052393 0 0 1
49.10114789014815 -32.71348405242998 0 0 1
47.83906849070564 -36.560761665065115 0 0 1
46.08117537426091 -40.159479414298275 0 0 1
43.86949000001458 -43.493723797125 0 0 1
41.15924921713298 -46.44455542164971 0 0 1
37.93284887087109 -48.83850630181181 0 0 1
34.239511690266525 -50.49336414044485 0 0 1
30.27779103333226 -51.155919644460845 0 0 1
26.314460107512808 -50.51966903512905 0 0 1
22.696118056825668 -48.701824251160566 0 0 1
19.354657898112926 -46.48381989289169 0 0 1
15.607031922314563 -45.06077781601242 0 0 1
12.026400142711914 -46.878203725310584 0 0 1
9.084079251928003 -49.64438634846972 0 0 1
6.141298207968894 -52.399150464393735 0 0 1
2.4569188031002045 -54.05114837750376 0 0 1
-1.5532882096358525 -53.70979451646592 0 0 1
-5.270127141701245 -52.164561732397594 0 0 1
-8.571681018592999 -49.8196185307315 0 0 1
-11.327082827557915 -46.91266342851535 0 0 1
-13.535681782296605 -43.571261802815776 0 0 1
-15.163181204910423 -39.86608092096568 0 0 1
-16.113735623515463 -35.96012635987942 0 0 1
-16.311221701045525 -31.922386718487196 0 0 1
-15.650757039535497 -27.939576816291737 0 0 1
-14.069854390324465 -24.218645993061802 0 0 1
-11.631952426162504 -21.017648728964573 0 0 1
-8.762083865088105 -18.21648760860188 0 0 1
-7.0920960346424 -14.560632065307923 0 0 1
-7.733659819039466 -10.600992554362167 0 0 1
-7.951596365282894 -6.573945179011538 0 0 1
-6.559584118071761 -2.797750168986888 0 0 1
-3.7460748622442273 0.09181431728876666 0 0 1
1.4124296459229548 -1.6928235089463548 0 1 1
4.9264434630960565 -2.4254099746856697 0 1 1
7.076399114700701 -4.873585631942249 0 1 1
8.329356709313547 -8.728588441276356 0 1 1
10.271314325073229 -12.251544730371068 0 1 1
13.551728535327133 -14.593152410361537 0 1 1
17.54881275955055 -15.22141772222069 0 1 1
21.546818055081012 -14.969107063083648 0 1 1
25.5640544455468 -14.528312042647837 0 1 1
29.58623488277203 -14.405648313399281 0 1 1
33.615439755471186 -14.610105960029069 0 1 1
37.62039269453389 -15.097594244581444 0 1 1
41.41330279308676 -16.41027432785609 0 1 1
43.91621323771831 -19.555801892746643 0 1 1
45.0729066490824 -23.4072478815588 0 1 1
46.00700786272603 -27.327969986455294 0 1 1
45.81460485258592 -31.34799615946194 0 1 1
44.62414500724195 -35.17636714425521 0 1 1
42.82952904782269 -38.791153043638424 0 1 1
40.497778342933415 -42.09601737332013 0 1 1
37.59683387392979 -44.85783071544657 0 1 1
34.09144193845924 -46.83631604591042 0 1 1
30.143546673075676 -47.65728530305601 0 1 1
26.228079515518054 -46.68933438929325 0 1 1
22.817099302632137 -44.5783969859974 0 1 1
19.372713261777463 -42.48010208134802 0 1 1
15.422182131643014 -41.565436999247545 0 1 1
11.61324322074696 -42.872843590395405 0 1 1
8.430252561430201 -45.38521382158237 0 1 1
5.58339543740579 -48.1967110073877 0 1 1
2.3202328087612507 -50.51790415673749 0 1 1
-1.6678441176095609 -49.994252087643446 0 1 1
-5.192568514914965 -48.05389532754866 0 1 1
-8.12247979980757 -45.30004050282251 0 1 1
-10.419198286245397 -41.97524476465703 0 1 1
-12.002983438877989 -38.268307710319434 0 1 1
-12.78246888698055 -34.31278015520252 0 1 1
-12.60838901936502 -30.295979014704372 0 1 1
-11.328626927743187 -26.495080391839267 0 1 1
-8.916178513810973 -23.246613889423184 0 1 1
-6.0420030721738165 -20.432641991814595 0 1 1
-3.901940117435865 -17.03851280561637 0 1 1
-3.7354229638377348 -13.015295135801722 0 1 1
-4.426399947711078 -9.074877018621953 0 1 1
-3.8586273686062365 -5.096975033001074 0 1 1
-1.6425861932616133 -3.1341711992987302 0 1 1
-62.985157495604206 4.21341533847095 0 3 1