# .PCD v0.7 - Point Cloud Data file format
VERSION 0.7
FIELDS x y z color score
SIZE 4 4 4 4 4
TYPE F F F I F
COUNT 1 1 1 1 1
WIDTH 234
HEIGHT 1
VIEWPOINT 0 0 0 1 0 0 0
POINTS 234
DATA ascii
8.0298634 8.1263962 0 0 1
10.787505 -20.826874 0 0 1
7.1821895 -11.040043 0 0 1
18.605726 -66.798164 0 0 1
15.925788 -45.076141 0 1 1
19.326963 -86.433693 0 0 1
16.539228 -42.284195 0 1 1
15.22117 -39.853954 0 1 1
11.278636 -45.051548 0 0 1
13.777047 -47.954079 0 1 1
5.7052808 -47.714146 0 0 1
8.6620684 -46.686142 0 0 1
11.537715 -42.240311 0 0 1
6.5229096 -51.862682 0 1 1
10.301956 -39.299774 0 0 1
13.386388 -37.165928 0 1 1
1.8834586 -48.538235 0 0 1
10.317792 -50.378616 0 1 1
2.5301919 -51.944469 0 1 1
42.822063 -83.299904 0 0 1
17.238825 -112.32601 0 0 1
45.158119 -122.51991 0 0 1
44.37574 -97.892982 0 0 1
43.453732 -86.651756 0 0 1
18.589403 -115.24608 0 0 1
44.318089 -125.63507 0 0 1
2.8319359 -99.988724 0 0 1
15.644121 -105.36634 0 1 1
28.526127 -129.30716 0 0 1
5.2008476 -102.24051 0 0 1
40.268867 -87.804993 0 1 1
25.187262 -126.02105 0 0 1
32.668846 -131.70018 0 0 1
43.783257 -90.837646 0 0 1
40.469185 -92.471466 0 1 1
15.527129 -109.31064 0 0 1
20.291355 -118.90543 0 0 1
41.201206 -124.23792 0 1 1
-2.7305233 -90.824104 0 0 1
10.66896 -106.60681 0 0 1
-0.79640138 -94.941727 0 0 1
45.083519 -107.85225 0 0 1
44.171703 -94.481468 0 0 1
40.879005 -95.760414 0 1 1
0.77563053 -97.276535 0 0 1
43.456696 -127.75661 0 0 1
41.202328 -129.83598 0 0 1
41.143887 -98.833641 0 1 1
13.327343 -107.92348 0 0 1
41.824924 -106.55182 0 1 1
22.472767 -122.61187 0 0 1
42.1572 -115.11726 0 1 1
37.172905 -131.71835 0 0 1
42.025455 -119.71703 0 1 1
7.9048777 -104.75126 0 0 1
41.450218 -102.85246 0 1 1
19.874142 -110.38114 0 1 1
44.680267 -101.58401 0 0 1
12.348987 -103.60857 0 1 1
44.959793 -104.91441 0 0 1
45.317379 -110.41402 0 0 1
45.436398 -114.37658 0 0 1
39.16941887713452 -127.26596774353277 0 1 1
18.342419 -107.57434 0 1 1
41.969437 -110.68407 0 1 1
45.352718 -120.11206 0 0 1
45.664005 -117.28539 0 0 1
25.586672 -121.27844 0 1 1
21.479563 -113.50745 0 1 1
30.45093 -126.54671 0 1 1
33.301437 -128.30089 0 1 1
36.050121 -128.44846 0 1 1
28.113286130778853 -123.55962793280582 0 1 1
24.47967389471196 -118.19384533133827 0 1 1
-24.62766022799889 1.9958740561041068 0 0 1
-5.488653654286294 1.853311623525242 0 0 1
-3.2076547330244574 1.8889522316699583 0 0 1
-14.683930555623073 2.1740770968276877 0 0 1
-32.29039097911288 -12.296009809927089 0 0 1
-26.48097185152413 -17.89158528864753 0 0 1
-28.44120529948352 -16.323398530280016 0 0 1
5.631216086865157 -36.28213909132109 0 0 1
-4.524734716134074 -87.8435926327161 0 0 1
-6.0411886007147055 -84.54370046752582 0 0 1
-7.864409265225326 -81.82645740358493 0 0 1
-9.738971539185062 -78.47391516164912 0 0 1
-11.538758760449157 -75.38817006290171 0 0 1
-13.417860898994833 -72.23493773207072 0 0 1
-14.966572688643941 -69.03831860719364 0 0 1
-16.62642301186855 -65.04068873580748 0 0 1
-17.684984716100796 -61.321519861833465 0 0 1
-17.931570615820586 -58.19414798917171 0 0 1
-17.4694834294821 -55.092688438980254 0 0 1
-16.485895626022092 -52.80894877941059 0 0 1
-14.9174813184036 -51.20838837232963 0 0 1
-11.86779918366187 -50.22294496652286 0 0 1
-8.327843448863876 -49.55084846722976 0 0 1
-4.728745285052886 -49.218070044516786 0 0 1
-1.315883070229022 -48.75560577932127 0 0 1
8.12090243150512 -37.724464274047925 0 0 1
2.9692122597972475 -34.80977350434608 0 0 1
-1.9518745368483024 -32.47161212428599 0 0 1
-7.748256436810133 -29.77128481639864 0 0 1
-13.45711720723471 -26.440426441720355 0 0 1
-18.83577206338149 -23.320250934261306 0 0 1
-24.23330780147896 -19.13241662129937 0 0 1
-0.508408955001371 2.084476715505621 0 0 1
-8.314825572530324 1.915714115757384 0 0 1
-11.779887468676387 1.9261941826251334 0 0 1
-20.976849520767324 2.2972807384815135 0 0 1
-28.36501928153503 2.0273561606792048 0 0 1
-31.91132264789207 1.3093039643510065 0 0 1
-33.923478521215856 -0.2615237627193689 0 0 1
-34.74637329019339 -2.4576425231468106 0 0 1
-34.741133256759525 -5.100329463261536 0 0 1
-34.38104658071709 -7.431691371049157 0 0 1
-33.402468343590066 -9.865254882783258 0 0 1
-30.444775776552984 -14.575097095291522 0 0 1
-4.6668823191448645 -31.048067050282143 0 0 1
-10.655627921293291 -28.348259555341006 0 0 1
0.5954102715924265 -33.72219419100011 0 0 1
-16.232406326006753 -24.85019801975309 0 0 1
-21.411898007694454 -21.14037208708169 0 0 1
-17.577308994530622 2.235959776113627 0 0 1
19.312777 0.60946387 0 0 1
38.828899 -36.58688 0 0 1
22.282072 0.51419085 0 0 1
2.251688 1.698388 0 0 1
4.2448802 1.5075216 0 0 1
36.021534 -17.956762 0 0 1
7.7603965 1.2462925 0 0 1
32.993858 -7.9498096 0 0 1
11.761539 1.0673969 0 0 1
34.48571 -11.719087 0 0 1
37.534157 -26.004278 0 0 1
24.978628 -0.36057088 0 0 1
15.554029 0.89785218 0 0 1
39.445606 -41.269985 0 0 1
36.781075 -21.475952 0 0 1
31.029804 -4.7870274 0 0 1
37.998287 -55.734226 0 0 1
28.45587 -2.2539515 0 0 1
35.330906 -15.051735 0 0 1
36.105644 -57.980286 0 0 1
39.959244 -46.912575 0 0 1
39.768631 -44.049023 0 0 1
38.08218 -29.60964 0 0 1
38.378407 -32.631798 0 0 1
40.226879 -49.295818 0 0 1
35.496422 -64.656105 0 0 1
35.075512 -61.148518 0 0 1
39.677074 -52.93148 0 0 1
38.178905 -72.938126 0 0 1
36.544353 -68.842972 0 0 1
39.953648 -76.07972 0 0 1
41.431263 -79.056541 0 0 1
23.181673799414263 -115.66110632169695 0 1 1
10.162591969341202 -100.94139277319734 0 1 1
7.924715499408554 -99.2300754726606 0 1 1
5.792150863355089 -97.17649471201652 0 1 1
3.6069303103620327 -94.41205907268795 0 1 1
1.7376452590065268 -90.9104405962051 0 1 1
-0.7626134325020564 -52.67116773814203 0 1 1
-4.270635222011516 -52.87453132014258 0 1 1
-8.490429548522895 -53.43378117064409 0 1 1
-11.998451338032355 -54.60312176714724 0 1 1
-13.167791934535508 -57.501052810655054 0 1 1
-13.218632830035645 -61.6700062416663 0 1 1
-12.201814920032902 -65.12718713567561 0 1 1
-10.52406536852838 -69.19445877568658 0 1 1
-8.744634026023581 -72.54995787869564 0 1 1
-6.405952833017274 -76.61722951870661 0 1 1
-4.219794326511379 -80.07441041271592 0 1 1
-2.592885670506992 -83.12486414272415 0 1 1
-0.508408955001371 -86.32784055923278 0 1 1
0.7626134325020564 -88.46315817023854 0 1 1
10.473224473028242 -34.87685431309405 0 1 1
6.710998206018097 -33.04658207508911 0 1 1
3.0504537300082255 -31.31799162808445 0 1 1
-1.7794313425047983 -29.131833121578556 0 1 1
-5.897543878015903 -27.098197301573073 0 1 1
-8.947997608024128 -25.471288645568684 0 1 1
-12.456019397533588 -23.691857303063887 0 1 1
-15.525873822438705 -21.59742033363672 0 1 1
-18.251881484549216 -19.522903872052645 0 1 1
-20.539721782055388 -17.387586261046888 0 1 1
-23.030925661562105 -15.55731402304195 0 1 1
-25.87801580956978 -13.727041785037017 0 1 1
-28.826787748577733 -11.083315219029886 0 1 1
-30.199491927081436 -7.931179698021387 0 1 1
-30.555378195582396 -4.9824077590134355 0 1 1
-29.640242076579927 -2.033635820005484 0 1 1
-25.674652227569233 -1.2201814920032903 0 1 1
-22.878402975061693 -1.2201814920032903 0 1 1
-19.370381185552233 -1.067658805502879 0 1 1
-13.32031462103592 -1.067658805502879 0 1 1
-10.269860891027694 -1.5252268650041128 0 1 1
-6.050066564516315 -1.7794313425047983 0 1 1
-1.6777495515045242 -1.9319540290052095 0 1 1
1.57606776050425 -1.7285904470046614 0 1 1
-16.014882082543185 -0.9151361190024677 0 1 1
33.43177 -21.930044 0 1 1
32.136711 -15.719058 0 1 1
4.2155881 -2.2299416 0 1 1
35.876316 -41.092407 0 1 1
7.5905933 -2.2070398 0 1 1
31.220461 -12.505254 0 1 1
15.424819 -2.4819438 0 1 1
28.470648 -7.0413189 0 1 1
19.33585 -2.7170537 0 1 1
26.440634 -5.0210886 0 1 1
34.162506 -26.496014 0 1 1
11.555139 -2.3281417 0 1 1
23.925997 -3.5387053 0 1 1
29.853102 -9.2357969 0 1 1
36.253273 -44.115505 0 1 1
32.786648 -18.938864 0 1 1
34.627674 -30.007874 0 1 1
34.453808 -54.689426 0 1 1
34.976398 -32.952541 0 1 1
35.402405 -36.800823 0 1 1
36.574772 -46.205933 0 1 1
36.755863 -48.845055 0 1 1
36.472271 -51.747105 0 1 1
32.311478 -57.463417 0 1 1
33.398357 -70.025124 0 1 1
31.923502 -65.949188 0 1 1
31.326809 -61.854637 0 1 1
35.156139 -74.510483 0 1 1
36.99836 -78.16523 0 1 1
38.510044 -81.084496 0 1 1
39.469826 -84.043961 0 1 1
6.0 2.5 0 4 1
6.0 -2.5 0 4 1